<svg xmlns="http://www.w3.org/2000/svg" viewBox="0 0 200 200" fill="none">
  <!-- Background circle -->
  <circle cx="100" cy="100" r="95" fill="#007461"/>
  
  <!-- Room/Door icon -->
  <rect x="60" y="50" width="80" height="100" rx="8" fill="white" opacity="0.2"/>
  <rect x="65" y="55" width="70" height="90" rx="6" fill="white" opacity="0.3"/>
  
  <!-- Calendar grid -->
  <rect x="75" y="70" width="50" height="60" rx="4" fill="white"/>
  
  <!-- Calendar header -->
  <rect x="75" y="70" width="50" height="12" rx="4" fill="#308276"/>
  
  <!-- Calendar dots (days) -->
  <circle cx="85" cy="90" r="2.5" fill="#007461"/>
  <circle cx="95" cy="90" r="2.5" fill="#007461"/>
  <circle cx="105" cy="90" r="2.5" fill="#007461"/>
  <circle cx="115" cy="90" r="2.5" fill="#007461"/>
  
  <circle cx="85" cy="100" r="2.5" fill="#007461"/>
  <circle cx="95" cy="100" r="2.5" fill="#007461"/>
  <circle cx="105" cy="100" r="2.5" fill="#007461"/>
  <circle cx="115" cy="100" r="2.5" fill="#007461"/>
  
  <circle cx="85" cy="110" r="2.5" fill="#007461"/>
  <circle cx="95" cy="110" r="2.5" fill="#007461"/>
  <circle cx="105" cy="110" r="2.5" fill="#0a94a8"/>
  <circle cx="115" cy="110" r="2.5" fill="#007461"/>
  
  <circle cx="85" cy="120" r="2.5" fill="#007461"/>
  <circle cx="95" cy="120" r="2.5" fill="#007461"/>
  <circle cx="105" cy="120" r="2.5" fill="#007461"/>
  <circle cx="115" cy="120" r="2.5" fill="#007461"/>
  
  <!-- Checkmark accent -->
  <path d="M103 108 L106 112 L113 102" stroke="#0a94a8" stroke-width="2.5" stroke-linecap="round" stroke-linejoin="round" fill="none"/>
</svg>
